<?xml version="1.0" encoding="UTF-8"?>
<svg width="566.98" height="566.98" version="1.1" fill="rgb(161, 138, 83)" viewBox="0 0 566.98 566.98" xmlns="http://www.w3.org/2000/svg" xmlns:cc="http://creativecommons.org/ns#" xmlns:dc="http://purl.org/dc/elements/1.1/" xmlns:rdf="http://www.w3.org/1999/02/22-rdf-syntax-ns#">
 <metadata>
  <rdf:RDF>
   <cc:Work rdf:about="">
    <dc:format>image/svg+xml</dc:format>
    <dc:type rdf:resource="http://purl.org/dc/dcmitype/StillImage"/>
    <dc:title/>
   </cc:Work>
  </rdf:RDF>
 </metadata>
 <path d="m294.77 480.94c-1.262-0.63753-1.2599-2.3784 4e-3 -3.0306 0.33802-0.1745 0.5302-0.21174 0.88914-0.1723 0.95442 0.10486 1.4376 0.6291 1.4947 1.6216 0.0329 0.57209 8e-3 0.69532-0.20725 1.0204-0.28138 0.42518-0.92396 0.77695-1.4193 0.77695-0.18334 0-0.52575-0.0972-0.76091-0.216zm34.023 0.0793c-2.0026-0.45746-3.7189-2.0677-4.375-4.1048-0.11516-0.35757-0.1904-0.66882-0.16719-0.69166 0.0232-0.0228 0.60379-0.2109 1.2902-0.41791l1.248-0.37638 0.19789 0.54309c0.50278 1.3798 1.4663 2.2206 2.7142 2.3684 1.0428 0.12351 2.1586-0.52188 2.6476-1.5314 0.53903-1.1128 0.53632-1.0701 0.53632-8.4408v-6.7958h2.784l-2e-3 7.224c-2e-3 7.9565-4e-3 7.9959-0.59128 9.192-0.21251 0.43309-0.54312 0.85938-1.0806 1.3934-1.17 1.1623-2.2248 1.6421-3.7984 1.7278-0.51323 0.0279-1.0342-5e-3 -1.404-0.0899zm-75.972-9.7979v-9.6567l8.784 0.0554 0.74549 0.35597c1.2185 0.58186 2.1259 1.5731 2.5812 2.8198 0.16393 0.44889 0.20857 0.79008 0.21249 1.6243 7e-3 1.5551-0.39277 2.7147-1.2232 3.5451l-0.40828 0.40827 0.52525 0.27501c1.0549 0.55231 1.9526 1.7897 2.2675 3.1255 0.21306 0.90391 0.19294 2.5111-0.0409 3.268-0.49981 1.6176-1.6699 2.8491-3.3446 3.5202l-0.64286 0.2576-9.456 0.0584zm9.3294 6.7388c0.64186-0.3152 1.0682-0.769 1.4129-1.5038 0.35922-0.76587 0.35846-1.9325-2e-3 -2.7007-0.31351-0.66851-0.83029-1.1934-1.4667-1.4897-0.48258-0.22471-0.53407-0.22809-3.4898-0.22901l-3-9.4e-4v6.134l0.504 0.0398c0.2772 0.0219 1.6272 0.0349 3 0.029l2.496-0.0108zm-0.82568-8.7943c0.46897-0.213 1.016-0.75462 1.2531-1.2406 0.10314-0.21146 0.1871-0.64549 0.20918-1.0815 0.046-0.909-0.19389-1.5366-0.80151-2.0967-0.67687-0.62392-1.0483-0.68661-3.8909-0.65671l-2.4416 0.0257-0.0256 2.616-0.0255 2.616 2.6655-2e-3c2.3876-2e-3 2.7064-0.0206 3.0573-0.18002zm11.56 2.0541v-9.648h4.3986c4.865 0 4.8546-1e-3 6.0654 0.63355 0.84979 0.4454 1.4443 0.9775 1.9498 1.7452 0.62523 0.94949 0.84923 1.6264 0.90746 2.7423 0.0587 1.1261-0.0621 1.7694-0.50761 2.703-0.5561 1.1653-1.7406 2.2668-2.8994 2.6962-0.25201 0.0934-0.47067 0.17822-0.4859 0.18848-0.0152 0.0103 1.3208 1.8062 2.969 3.991 1.6482 2.1848 3.1022 4.1127 3.2311 4.2843l0.23435 0.312-3.6228-8e-3 -6.048-8.339-3.408-6e-3v8.352h-2.784v-9.648zm8.7734-1.5883c0.61722-0.23092 1.2011-0.77647 1.5166-1.417 0.18008-0.36561 0.22156-0.60478 0.21969-1.2667-2e-3 -0.69583-0.0402-0.88844-0.25945-1.3078-0.14143-0.27052-0.45991-0.67032-0.70772-0.88845-0.7207-0.63439-1.0156-0.68371-4.088-0.68371h-2.6706v5.76h2.7324c2.5172 0 2.7737-0.0155 3.257-0.19628zm22.715 1.5883v-9.648h4.3986c4.865 0 4.8546-1e-3 6.0654 0.63355 0.84979 0.4454 1.4443 0.9775 1.9498 1.7452 0.62523 0.94949 0.84923 1.6264 0.90746 2.7423 0.0587 1.1261-0.0621 1.7694-0.50761 2.703-0.5561 1.1653-1.7406 2.2668-2.8994 2.6962-0.25201 0.0934-0.47067 0.17822-0.4859 0.18848-0.0152 0.0103 1.3208 1.8062 2.969 3.991 1.6482 2.1848 3.1022 4.1127 3.2311 4.2843l0.23435 0.312-3.6228-8e-3 -6.048-8.339-3.408-6e-3v8.352h-2.784v-9.648zm8.7734-1.5883c0.61722-0.23092 1.2011-0.77647 1.5166-1.417 0.18008-0.36561 0.22157-0.60478 0.21969-1.2667-2e-3 -0.69583-0.0402-0.88844-0.25945-1.3078-0.14143-0.27052-0.45991-0.67032-0.70772-0.88845-0.7207-0.63439-1.0156-0.68371-4.088-0.68371h-2.6706v5.76h2.7324c2.5172 0 2.7737-0.0155 3.257-0.19628zm-205.89-33.167c-2.1174-0.39894-4.3074-1.5135-5.8106-2.9572-1.103-1.0594-2.2082-2.8189-2.6963-4.2926-0.64978-1.962-0.59543-4.4332 0.14054-6.3898 1.044-2.7754 3.306-5.0583 6.1245-6.181 3.4222-1.3632 7.1526-1.0531 10.291 0.85534 0.71394 0.43415 1.4813 0.98498 1.4832 1.0647 3e-3 0.12739-1.9496 2.252-2.0453 2.2253-0.0605-0.0169-0.23956-0.15102-0.39796-0.29808-0.71799-0.66661-2.1176-1.4096-3.216-1.7071-0.8478-0.2297-2.7787-0.22617-3.648 7e-3 -2.1656 0.58001-4.0833 2.1779-5.0856 4.2373-0.58245 1.1968-0.71883 1.8202-0.714 3.264 4e-3 1.1469 0.029 1.3207 0.31129 2.1457 0.45315 1.3245 0.96377 2.1351 1.9744 3.1343 0.99702 0.98576 2.0528 1.6069 3.3699 1.9827 1.0872 0.31017 2.9369 0.31257 4.0127 5e-3 1.3342-0.38119 2.3791-0.99321 3.4508-2.0213 0.59109-0.56704 0.66223-0.60875 0.816-0.47853 1.4035 1.1885 2.1365 1.8425 2.1365 1.9063 0 0.14168-1.1849 1.1494-1.9776 1.6819-1.0621 0.71347-2.4393 1.3488-3.5638 1.644-0.78897 0.20712-1.1988 0.25181-2.5706 0.28034-1.1633 0.0242-1.8483-7e-3 -2.3851-0.10795zm112.69 0.0468c-1.6274-0.25065-3.5518-1.0408-4.6089-1.8924-0.63689-0.5131-1.5262-1.5601-1.4151-1.6661 0.0396-0.0378 0.67679-0.3486 1.416-0.69071l1.344-0.62202 0.432 0.45752c0.72237 0.76507 1.6445 1.2263 3.001 1.5012 1.1179 0.22652 3.3299 0.14764 4.2092-0.15009 1.3475-0.45623 2.0225-1.2844 2.087-2.5605 0.0456-0.90336-0.0867-1.2693-0.64897-1.7953-0.79907-0.74744-1.7773-1.1455-4.5362-1.8459-2.8958-0.73512-4.2016-1.3288-5.4114-2.4605-2.5053-2.3436-1.6915-6.5124 1.5873-8.131 1.2248-0.60466 2.0109-0.78418 3.7086-0.84696 2.3555-0.0871 4.3452 0.36656 5.9243 1.3508 0.63518 0.39589 1.7937 1.4716 1.7893 1.6614-1e-3 0.0435-0.58444 0.39613-1.2965 0.78357l-1.2946 0.70446-0.46328-0.41646c-0.93206-0.83785-2.1636-1.2931-3.7597-1.39-1.0464-0.0635-1.896 0.0941-2.7129 0.50306-1.0999 0.55071-1.4917 1.0632-1.5831 2.0709-0.14906 1.6439 1.0178 2.4618 4.8492 3.3994 2.5529 0.62469 3.9942 1.2078 5.17 2.0918 1.3357 1.0042 2.0547 2.4205 2.0513 4.0406-3e-3 1.4826-0.50325 2.6716-1.5797 3.7554-0.96181 0.96841-2.1776 1.6287-3.7113 2.0155-0.72567 0.18305-3.663 0.26845-4.5476 0.13221zm71.424 0c-1.6274-0.25065-3.5518-1.0408-4.6089-1.8924-0.63689-0.5131-1.5262-1.5601-1.4151-1.6661 0.0396-0.0378 0.67678-0.3486 1.416-0.69071l1.344-0.62202 0.432 0.45752c0.72237 0.76507 1.6445 1.2263 3.001 1.5012 1.1179 0.22652 3.3299 0.14764 4.2092-0.15009 1.3475-0.45623 2.0225-1.2844 2.087-2.5605 0.0456-0.90336-0.0866-1.2693-0.64897-1.7953-0.79907-0.74744-1.7773-1.1455-4.5362-1.8459-2.8958-0.73512-4.2016-1.3288-5.4114-2.4605-2.5053-2.3436-1.6915-6.5124 1.5873-8.131 1.2248-0.60466 2.0109-0.78418 3.7086-0.84696 2.3555-0.0871 4.3452 0.36656 5.9243 1.3508 0.63518 0.39589 1.7937 1.4716 1.7893 1.6614-1e-3 0.0435-0.58443 0.39613-1.2965 0.78357l-1.2946 0.70446-0.46328-0.41646c-0.93206-0.83785-2.1636-1.2931-3.7597-1.39-1.0464-0.0635-1.896 0.0941-2.7129 0.50306-1.0999 0.55071-1.4917 1.0632-1.5831 2.0709-0.14906 1.6439 1.0178 2.4618 4.8492 3.3994 2.5529 0.62469 3.9942 1.2078 5.17 2.0918 1.3357 1.0042 2.0547 2.4205 2.0513 4.0406-3e-3 1.4826-0.50325 2.6716-1.5797 3.7554-0.96182 0.96841-2.1776 1.6287-3.7113 2.0155-0.72567 0.18305-3.663 0.26845-4.5476 0.13221zm84.879-0.0468c-2.1174-0.39894-4.3074-1.5135-5.8107-2.9572-1.103-1.0594-2.2082-2.8189-2.6963-4.2926-0.64977-1.962-0.59542-4.4332 0.14055-6.3898 1.044-2.7754 3.306-5.0583 6.1244-6.181 3.4222-1.3632 7.1526-1.0531 10.291 0.85534 0.71393 0.43415 1.4813 0.98498 1.4832 1.0647 3e-3 0.12739-1.9496 2.252-2.0453 2.2253-0.0605-0.0169-0.23956-0.15102-0.39796-0.29808-0.718-0.66661-2.1176-1.4096-3.216-1.7071-0.84781-0.2297-2.7787-0.22617-3.648 7e-3 -2.1656 0.58001-4.0833 2.1779-5.0856 4.2373-0.58246 1.1968-0.71884 1.8202-0.71401 3.264 4e-3 1.1469 0.029 1.3207 0.3113 2.1457 0.45315 1.3245 0.96376 2.1351 1.9744 3.1343 0.99703 0.98576 2.0528 1.6069 3.3699 1.9827 1.0872 0.31017 2.9369 0.31257 4.0127 5e-3 1.3342-0.38119 2.3791-0.99321 3.4508-2.0213 0.59109-0.56704 0.66223-0.60875 0.816-0.47853 1.4035 1.1885 2.1365 1.8425 2.1365 1.9063 0 0.14168-1.1849 1.1494-1.9776 1.6819-1.0621 0.71347-2.4393 1.3488-3.5638 1.644-0.78898 0.20712-1.1988 0.25181-2.5706 0.28034-1.1633 0.0242-1.8483-7e-3 -2.3851-0.10795zm103.09 0.0468c-1.6274-0.25065-3.5518-1.0408-4.6089-1.8924-0.6369-0.5131-1.5262-1.5601-1.4151-1.6661 0.0396-0.0378 0.67678-0.3486 1.416-0.69071l1.344-0.62202 0.432 0.45752c0.72237 0.76507 1.6445 1.2263 3.001 1.5012 1.1179 0.22652 3.3299 0.14764 4.2092-0.15009 1.3475-0.45623 2.0225-1.2844 2.087-2.5605 0.0456-0.90336-0.0866-1.2693-0.64897-1.7953-0.79908-0.74744-1.7774-1.1455-4.5362-1.8459-2.8958-0.73512-4.2016-1.3288-5.4114-2.4605-2.5053-2.3436-1.6915-6.5124 1.5873-8.131 1.2248-0.60466 2.0109-0.78418 3.7086-0.84696 2.3555-0.0871 4.3452 0.36656 5.9243 1.3508 0.63518 0.39589 1.7937 1.4716 1.7893 1.6614-1e-3 0.0435-0.58444 0.39613-1.2965 0.78357l-1.2946 0.70446-0.46328-0.41646c-0.93206-0.83785-2.1636-1.2931-3.7597-1.39-1.0464-0.0635-1.896 0.0941-2.7128 0.50306-1.0999 0.55071-1.4917 1.0632-1.5831 2.0709-0.14906 1.6439 1.0178 2.4618 4.8492 3.3994 2.5529 0.62469 3.9942 1.2078 5.1699 2.0918 1.3357 1.0042 2.0547 2.4205 2.0513 4.0406-3e-3 1.4826-0.50324 2.6716-1.5797 3.7554-0.96182 0.96841-2.1776 1.6287-3.7113 2.0155-0.72568 0.18305-3.6631 0.26845-4.5476 0.13221zm-346.43-10.312 4.6699-10.125 3.7501-6e-3 4.5959 9.96c2.5278 5.478 4.6344 10.037 4.6814 10.13 0.0806 0.16028-0.0209 0.16858-1.7596 0.144l-1.8451-0.0261-2.9099-6.24h-9.2556l-2.903 6.288h-3.6941l4.6699-10.125zm9.7818 0.83657c-0.13445-0.48596-3.1845-6.9337-3.2492-6.8687-0.0812 0.0817-3.2548 6.8894-3.2548 6.9819 0 0.0301 1.4738 0.0548 3.2752 0.0548 3.0729 0 3.2723-0.0104 3.2287-0.168zm19.32-0.84v-10.128h15.264v2.6865l-11.856 0.0494-0.051 5.424h10.755v2.88h-10.752v9.216h-3.36zm26.208 0v-10.128h13.824v2.6863l-10.416 0.0496-0.051 5.424h9.315v2.88h-9.312v6.432h10.464v2.784h-13.824zm71.424 0v-10.128h13.824v2.6863l-10.416 0.0496-0.051 5.424h9.315v2.88h-9.312v6.432h10.464v2.784h-13.824zm53.856 0v-10.128l5.064 2e-3c5.7688 2e-3 5.8584 0.0108 7.3107 0.72771 1.5584 0.76924 2.8106 2.2437 3.1718 3.7346 0.18283 0.75457 0.14321 2.1061-0.083 2.832-0.57114 1.8327-2.0813 3.2568-4.1835 3.9451-0.63745 0.2087-0.8571 0.22276-4.272 0.27348l-3.6 0.0535-0.05 8.688h-3.358v-10.128zm10.403-1.6832c0.62861-0.2352 1.3164-0.81855 1.6636-1.4111 0.38604-0.65872 0.42954-1.7325 0.0994-2.4536-0.30803-0.67284-0.8491-1.2134-1.5677-1.5662l-0.56582-0.27782h-6.624l-0.0508 5.904h3.2618c3.0446 0 3.2965-0.013 3.7835-0.1952zm17.341 1.6832v-10.128h13.824v2.6863l-10.416 0.0496-0.051 5.424h9.315v2.88h-9.312v6.432h10.464v2.784h-13.824zm58.464 8.88v-1.248h1.632v-15.264h-1.632v-2.496h6.624v2.496h-1.632v15.264h1.632v2.496h-6.624zm23.698-8.8766 4.6699-10.125 3.7501-6e-3 4.5959 9.96c2.5278 5.478 4.6344 10.037 4.6814 10.13 0.0806 0.16028-0.0209 0.16858-1.7596 0.144l-1.8451-0.0261-1.455-3.12-1.455-3.12h-9.2556l-2.903 6.288h-3.6941l4.6699-10.125zm9.7818 0.83657c-0.13444-0.48596-3.1845-6.9337-3.2492-6.8687-0.0812 0.0817-3.2547 6.8894-3.2547 6.9819 0 0.0301 1.4738 0.0548 3.2752 0.0548 3.0729 0 3.2723-0.0104 3.2287-0.168zm20.472 8.04v-1.248h1.632v-15.264h-1.632v-2.496h6.624v2.496h-1.632v15.264h1.632v2.496h-6.624zm-260.6-20.616c0.0302-0.1452 0.18571-1.1496 0.34554-2.232s0.31615-2.1084 0.34737-2.28l0.0568-0.312h1.7653c0.97092 0 1.7653 0.0337 1.7653 0.0749 0 0.0683-1.2351 3.6394-1.5928 4.6051l-0.15109 0.408h-2.5914zm-128.34-47.152c-0.79125-0.19718-1.395-0.77572-1.6279-1.56-0.13272-0.44691-0.14812-6.0597-0.14812-53.984s0.0154-53.537 0.14812-53.984c0.17453-0.58768 0.59198-1.0971 1.1388-1.3897l0.39309-0.21035h17.856l0.39769 0.21269c0.52016 0.27819 1.0435 0.89908 1.2715 1.5085 0.10052 0.26863 3.2207 15.964 6.9337 34.878 3.713 18.914 6.778 34.358 6.8111 34.319 0.0331-0.0387 3.093-15.536 6.7997-34.438 7.1934-36.682 6.8613-35.108 7.5548-35.794 0.15234-0.15051 0.45035-0.36651 0.66225-0.48l0.38525-0.20636h17.856l0.384 0.20666c0.502 0.27016 0.75766 0.5535 1.0273 1.1385l0.22068 0.4788v107.52l-0.22068 0.4788c-0.26966 0.58504-0.52532 0.86838-1.0273 1.1385-0.38026 0.20465-0.44507 0.20693-6.672 0.23498-4.3586 0.0196-6.4206-4e-3 -6.72-0.0778-0.62256-0.15295-1.0859-0.51049-1.4029-1.0825l-0.27709-0.50001-0.048-31.776-0.048-31.776-0.27569-0.0315c-0.15163-0.0173-0.31074 4e-3 -0.35358 0.048-0.0428 0.0437-2.8066 14.226-6.1418 31.517-3.3351 17.291-6.1464 31.658-6.2472 31.928-0.22855 0.61083-0.75151 1.2316-1.2721 1.51-0.38712 0.20703-0.49334 0.21347-3.9972 0.24215-2.4214 0.0198-3.7411-6e-3 -4.032-0.0776-0.9033-0.22363-1.5759-0.92992-1.874-1.9679-0.0758-0.264-2.8412-14.498-6.1452-31.632s-6.0313-31.249-6.0607-31.368c-0.0422-0.17093-0.12111-0.216-0.37822-0.216h-0.32489l-0.0247 31.704-0.0247 31.704-0.22069 0.4788c-0.26965 0.58504-0.52531 0.86838-1.0273 1.1385-0.38099 0.20504-0.43319 0.20678-6.672 0.22249-3.4584 9e-3 -6.4176-0.0165-6.576-0.0559zm96.815-0.12713c-0.46525-0.235-0.80501-0.66576-0.95715-1.2135-0.13379-0.48167-0.13379-107.92 0-108.41 0.15214-0.54771 0.4919-0.97847 0.95715-1.2135l0.42914-0.21677 46.18 0.0496 0.384 0.20004c0.24481 0.12753 0.47098 0.35371 0.624 0.624l0.24 0.42396 0.03 7.68c0.0216 5.523-9.6e-4 7.8232-0.0802 8.19-0.12622 0.58411-0.54607 1.1281-1.0252 1.3283-0.25637 0.10711-3.0181 0.12969-15.865 0.12969h-15.555v27.648h23.874l0.41298 0.21838c0.29754 0.15735 0.4963 0.3653 0.7111 0.744l0.29813 0.52562v15.648l-0.20666 0.384c-0.2594 0.48199-0.56053 0.7653-1.0156 0.95543-0.31446 0.13138-1.7279 0.14857-12.215 0.14857h-11.859v27.84l15.432 2e-3c8.9184 1e-3 15.591 0.0392 15.809 0.0896 0.47203 0.10948 0.81642 0.36276 1.0634 0.78212 0.18786 0.31895 0.192 0.49862 0.192 8.342v8.016l-0.21302 0.39833c-0.11716 0.21908-0.37636 0.49988-0.576 0.624l-0.36298 0.22567-46.276 0.0496-0.42913-0.21678zm75.629 0.12035c-0.42829-0.12911-0.83528-0.47289-1.0621-0.8972l-0.21383-0.39991v-108.48l0.27378-0.46579c0.21532-0.36632 0.38261-0.51561 0.78334-0.69907l0.50957-0.23328 16.785 0.0318c15.227 0.0288 16.877 0.0469 17.781 0.1945 2.2201 0.36244 3.6637 0.79614 5.3392 1.604 2.6809 1.2926 4.8672 3.395 6.3375 6.0941 1.0328 1.896 1.8551 4.5554 2.2727 7.3499l0.22172 1.4838v40.704l-0.21939 1.392c-0.63144 4.0064-1.6825 6.7813-3.5023 9.2462-1.1108 1.5046-2.7618 2.9625-4.3687 3.8578-0.37906 0.2112-0.69021 0.41891-0.69144 0.46158-1e-3 0.0427 1.9028 8.2939 4.2312 18.336 4.6362 19.995 4.4575 19.097 3.9411 19.822-0.48257 0.6777-0.0614 0.6414-7.7905 0.67152-7.7917 0.0304-7.4854 0.055-8.0884-0.64959-0.17294-0.20204-0.36461-0.51184-0.42595-0.68844-0.0613-0.17661-1.9317-8.1619-4.1565-17.745s-4.0872-17.586-4.1388-17.784l-0.0938-0.36h-8.2486v17.695c0 19.307 0.0285 18.308-0.5396 18.916-0.14111 0.15124-0.43383 0.35549-0.65049 0.45388-0.37288 0.16935-0.75788 0.17857-7.2099 0.17276-3.7488-3e-3 -6.933-0.0414-7.076-0.0845zm29.039-55.805c0.83289-0.24534 1.2959-0.51468 1.8677-1.0864 0.61307-0.61307 1.0041-1.4112 1.2222-2.4945 0.1365-0.67815 0.15-2.296 0.12605-15.111l-0.0268-14.352-0.26393-0.74577c-0.33809-0.95539-0.5939-1.3537-1.2609-1.9633-0.55889-0.51081-1.2292-0.8265-2.1091-0.99337-0.26231-0.0497-3.2837-0.0896-6.7952-0.0896h-6.3229v37.066l6.504-0.033c5.7816-0.0293 6.5656-0.0512 7.0589-0.19649zm63.429 55.837c-1.2402-0.11885-2.2831-0.26611-3.072-0.43379-3.4418-0.73151-6.4031-2.4124-8.3628-4.747-2.5416-3.0278-3.9332-6.9159-4.3078-12.036-0.0795-1.087-0.10085-13.686-0.0791-46.752l0.0298-45.264 0.25542-0.48c0.31866-0.59881 0.76881-1.0354 1.3286-1.2885 0.42034-0.19005 0.60293-0.19535 6.768-0.19649l6.336-1e-3 0.4807 0.22386c0.55206 0.25708 1.042 0.77207 1.3332 1.4014l0.20215 0.43687 0.048 43.392c0.0456 41.249 0.0564 43.42 0.21892 43.968 0.53421 1.8002 1.5063 2.7768 3.15 3.1642 0.88679 0.20903 8.2973 0.21237 9.1804 4e-3 1.6492-0.38886 2.6508-1.3628 3.1676-3.0801 0.1626-0.54026 0.17336-2.701 0.219-43.97l0.048-43.402 0.336-0.65806c0.37354-0.7316 0.91271-1.2187 1.5341-1.386 0.24743-0.0666 2.4307-0.0919 6.452-0.0746 5.8172 0.025 6.0943 0.0342 6.4578 0.21446 0.55506 0.27525 1.0721 0.85619 1.297 1.4574l0.19725 0.52719-0.0548 92.483-0.21257 1.344c-1.0648 6.7325-3.791 10.998-8.5559 13.388-1.7017 0.85333-4.2488 1.519-6.6033 1.7258-1.0536 0.0925-16.872 0.12779-17.791 0.0397zm62.077-0.0777c-0.51083-0.1821-0.8927-0.57604-1.067-1.1007-0.13129-0.39528-0.14432-6.1922-0.12257-54.544l0.0243-54.102 0.288-0.46378c0.17921-0.28859 0.43305-0.53958 0.672-0.66447 0.37939-0.19828 0.46858-0.20069 7.44-0.20069 6.945 0 7.0613 3e-3 7.3917 0.1972 0.38984 0.229 0.72558 0.68955 0.86279 1.1835 0.064 0.23039 0.0967 15.656 0.097 45.826l9.6e-4 45.479 29.712 0.0504 0.42683 0.24c0.30722 0.17275 0.49553 0.37379 0.672 0.7174l0.24517 0.4774v7.7306c0 7.2488-0.0109 7.7589-0.17489 8.1839-0.20234 0.52438-0.59199 0.88939-1.1001 1.0305-0.24105 0.0669-7.6071 0.098-22.677 0.0955-18.704-3e-3 -22.38-0.0251-22.691-0.13587zm71.603-4e-3c-0.2112-0.0747-0.47919-0.24571-0.59554-0.37995-0.20589-0.23758-0.41085-0.79808-0.41192-1.1265 0-0.0895 1.5998-8.5783 3.5559-18.864 1.956-10.286 6.062-31.877 9.1243-47.981s6.0849-31.994 6.7168-35.31c0.7072-3.7119 1.2186-6.1662 1.3304-6.384 0.22983-0.44814 0.53845-0.73648 0.9904-0.92532 0.31243-0.13053 1.4524-0.14858 9.3858-0.14858s9.0734 0.018 9.3858 0.14858c0.45529 0.19024 0.76081 0.47762 0.99655 0.93738 0.26532 0.51743 20.625 107.58 20.625 108.46 9.6e-4 0.73536-0.21453 1.148-0.76786 1.473-0.32897 0.19326-0.4745 0.19777-7.2957 0.22631-4.8533 0.0203-7.0694-3e-3 -7.3216-0.0763-0.50131-0.1462-0.96965-0.58651-1.2045-1.1325-0.1344-0.31243-0.75732-3.7666-1.9321-10.714-0.95357-5.6392-1.7338-10.27-1.7338-10.292 0-0.0213-4.8592-0.0386-10.798-0.0386h-10.798l-0.0476 0.216c-0.0262 0.1188-0.78358 4.747-1.683 10.285-1.1434 7.0396-1.6942 10.202-1.8309 10.511-0.24977 0.56463-0.52125 0.85691-1.0021 1.0788-0.36228 0.1672-0.77751 0.1771-7.344 0.17511-5.7523-2e-3 -7.0266-0.0257-7.344-0.13795zm37.73-38.568c-0.0707-0.30483-7.6336-47.189-7.6336-47.323 0-0.0602-0.0217-0.0877-0.0484-0.0611-0.0266 0.0266-1.7532 10.607-3.8368 23.512-2.0837 12.905-3.8134 23.604-3.844 23.776l-0.0555 0.312h15.468zm-250.9-102.5c-0.132-0.0423-0.19912-0.0812-0.14916-0.0864 0.05-5e-3 -0.12283-0.11812-0.384-0.25081-0.82446-0.41884-1.4828-1.1799-1.4828-1.7141 0-0.34108 0.17128-0.3207 0.70043 0.0833 0.39053 0.29819 0.50518 0.336 1.0188 0.336 0.72499 0 1.0738-0.17276 2.4087-1.193 1.2002-0.9173 1.9357-1.6524 2.2001-2.199 0.10644-0.22 0.23233-0.7473 0.27977-1.1718 0.0474-0.42448 0.15507-0.90486 0.23918-1.0675 0.20198-0.3906 0.98162-1.0829 1.5227-1.3521 0.98502-0.49012 1.156-0.94613 0.70906-1.8909-0.26342-0.55683-1.1518-1.4521-1.5368-1.5487-0.42343-0.10628-1.248 7e-3 -1.6777 0.2315-0.80516 0.41968-0.72206-0.0318 0.15727-0.85431 0.73195-0.68471 1.1482-0.91063 1.5103-0.81974 0.14087 0.0354 0.52343 0.31207 0.85013 0.61491 0.72178 0.66909 1.1066 0.94739 1.4158 1.0238 0.21338 0.0528 0.8706-0.22867 2.1002-0.89927 0.986-0.53775 3.6857-3.015 4.4917-4.1216 0.46533-0.63889 1.1454-1.3731 1.7543-1.8939 0.57132-0.48868 1.1184-1.2159 1.3769-1.8304 0.73851-1.7551 1.9052-3.0431 3.9958-4.4115 0.80364-0.52601 0.88701-0.57279 2.1914-1.2296 1.202-0.60526 1.4598-0.8411 1.4598-1.3353 0-0.44987-0.42884-1.3012-0.91324-1.813-0.82507-0.87169-1.5959-1.3256-2.5934-1.5272-0.50403-0.10184-0.64642-0.0949-1.104 0.054-0.6655 0.21646-0.85615 0.36088-2.7813 2.1069-0.8712 0.79014-1.9934 1.8063-2.4939 2.2582-3.2498 2.9345-9.447 8.6998-12.338 11.478-4.6388 4.4579-4.5997 4.4253-5.1251 4.2746-0.5262-0.15092-1.1902-0.79995-1.311-1.2816-0.0544-0.21664-0.0334-0.25755 0.13211-0.25755 0.1082 0 0.22344 0.0432 0.25607 0.096 0.12193 0.19728 0.81666 0.0976 1.3672-0.1962 0.79105-0.42213 1.8472-1.2519 1.9095-1.5002 0.0294-0.11735 2e-3 -0.36915-0.0607-0.55956-0.22822-0.6915 0.0174-1.0701 1.4824-2.2851 1.144-0.94874 3.473-3.1489 3.6974-3.4928 0.0769-0.11791 0.11575-0.2385 0.0863-0.26798-0.0295-0.0295-0.41642 0.13178-0.85987 0.35835-0.81301 0.41539-1.5567 0.72807-2.226 0.9359-0.28189 0.0875-0.39526 0.0868-0.50393-3e-3 -0.12015-0.0997-0.0984-0.16621 0.15209-0.46467 0.16077-0.19157 0.47782-0.59585 0.70457-0.89842 0.5139-0.6857 0.72429-0.85182 1.4835-1.1714 0.84373-0.35511 1.3219-0.67436 2.1145-1.4117 0.79582-0.74032 0.8226-0.85354 0.39794-1.6825-0.65607-1.2807-1.6758-2.3374-2.5267-2.6182-0.38967-0.1286-1.09-0.022-1.6215 0.24686-0.43293 0.21896-0.62586 0.10346-0.34077-0.20403 0.066-0.0712 0.2064-0.24097 0.312-0.37729 1.1758-1.5178 1.7685-1.9855 2.2589-1.7824 0.22907 0.0949 0.7651 0.73546 0.7651 0.91433 0 0.18471 1.3842 2.8594 1.6766 3.2396 0.72335 0.94075 1.7083 1.4926 1.9427 1.0885 0.0422-0.0728 0.59688-0.58041 1.2326-1.128 0.63569-0.54758 1.6293-1.4125 2.208-1.922 0.5787-0.50951 2.1538-1.8824 3.5002-3.0508 1.3464-1.1684 2.5263-2.2506 2.622-2.4047 0.1367-0.22024 0.15141-0.32248 0.0686-0.47717-0.27361-0.51124-0.38579-0.52815-5.4266-0.81816-2.2877-0.13162-3.4157-0.27708-4.872-0.62829-0.47773-0.11521-0.744-0.37321-0.744-0.72087 0-0.24947-0.49114-0.92787-0.83474-1.153-0.38014-0.24908-0.80093-0.32856-2.2011-0.41572-1.0582-0.0659-1.3064-0.11158-1.5508-0.28563-0.16004-0.11396-0.35129-0.20721-0.42498-0.20721-0.0737 0-0.18442-0.0504-0.24609-0.11212-0.11087-0.11087-0.3336-0.20652-1.1743-0.50427-0.2376-0.0842-0.49846-0.19056-0.5797-0.23644-0.0812-0.0459-0.34043-0.11525-0.576-0.15415-0.23556-0.0389-0.47831-0.11101-0.53941-0.16025-0.0611-0.0492-0.32032-0.12601-0.576-0.17059-0.2557-0.0446-0.78889-0.14672-1.1849-0.22696-1.9697-0.39909-2.4266-0.41283-5.568-0.16736-1.5144 0.11833-4.494 0.0568-7.3445-0.15159-1.5547-0.11368-2.9287-0.13537-6-0.0947-2.1909 0.029-4.1779 0.0648-4.4155 0.0796l-0.432 0.0269-0.048-0.624c-0.05-0.65019-0.14277-0.90576-0.29464-0.8119-0.0496 0.0307-0.0894-0.12055-0.0894-0.3401 0-0.21743 0.0387-0.37143 0.0859-0.34222 0.12624 0.078 0.20207-0.18794 0.20207-0.70868 0-0.70702 0.18587-0.86957 1.4562-1.2734 1.4033-0.44615 2.2688-0.62506 3.6318-0.75074 0.6072-0.056 1.1648-0.12266 1.2391-0.14814 0.0743-0.0255 1.2623-0.0867 2.64-0.13605 1.3777-0.0493 2.8505-0.13301 3.2729-0.18594 2.636-0.33026 4.7885-0.41617 8.304-0.33143 4.8506 0.11693 7.8349 0.10579 9.696-0.0362 1.7898-0.13653 4.7258-0.46758 5.376-0.60614 0.2376-0.0506 0.7776-0.13462 1.2-0.18664 0.4224-0.052 1.0488-0.15544 1.392-0.22984s0.9048-0.1879 1.248-0.25223c1.7203-0.32245 3.246-0.62628 4.32-0.8603 0.5016-0.10929 1.2792-0.26028 1.728-0.33552 0.4488-0.0752 0.9672-0.17867 1.152-0.22983 0.1848-0.0512 0.8112-0.16435 1.392-0.25152 1.0929-0.16401 1.488-0.27327 1.488-0.41141 0-0.0442-0.2484-0.18157-0.552-0.30524-0.3036-0.12366-0.876-0.39668-1.272-0.60671-1.7182-0.91127-2.4346-1.5702-2.5375-2.3338-0.0699-0.51853 0.0657-1.6532 0.2789-2.3349 0.77358-2.4733 0.58866-3.2098-1.095-4.3609-0.22026-0.15059-0.51255-0.45137-0.64955-0.66838-0.23498-0.37224-0.24964-0.46865-0.25901-1.7035-6e-3 -0.79725-0.0515-1.3616-0.11626-1.4436-0.25372-0.32142-0.97384-1.8016-1.0349-2.1273-0.09-0.47995 0.0338-0.67179 0.63449-0.98263 0.74754-0.38685 0.84279-0.49708 0.84279-0.97538 0-0.52293-0.38143-0.97661-1.3669-1.6258-0.90112-0.59367-1.1218-0.85488-1.128-1.3355-3e-3 -0.2112-0.0905-0.9024-0.19501-1.536-0.31824-1.9297-0.33255-1.8674 0.64997-2.8317 0.462-0.45344 0.96665-1.0091 1.1214-1.2347 0.26204-0.38199 0.28145-0.47231 0.28145-1.3096 0-0.83808-0.0192-0.92701-0.28145-1.3061-0.38767-0.56033-0.87015-0.88509-1.6935-1.1399-0.92078-0.28495-1.1913-0.56418-1.2738-1.3148-0.0338-0.30757-0.12169-0.94802-0.19528-1.4232-0.16095-1.0395-0.33498-3.8504-0.33453-5.4032 9.6e-4 -2.2442 0.28643-4.0895 0.74201-4.7914 0.0994-0.15315 0.15874-0.7557 0.21745-2.208 0.11905-2.9451 0.21926-3.6074 0.72634-4.8012 0.21159-0.4981 0.77459-1.0454 1.3147-1.278 0.45799-0.19724 0.60237-0.21169 1.6072-0.1608 0.6072 0.0308 1.4496 0.12578 1.872 0.21115 0.4224 0.0854 1.2216 0.2426 1.776 0.34939s1.2456 0.25329 1.536 0.32555c0.2904 0.0723 0.9384 0.22139 1.44 0.3314s1.0632 0.24929 1.248 0.30952c0.1848 0.0602 0.5088 0.13963 0.72 0.17644 0.2112 0.0368 0.9024 0.19713 1.536 0.35624 2.2919 0.57555 3.7156 0.85183 5.28 1.0246 2.0814 0.22993 2.7114 0.26767 2.7741 0.16623 0.0749-0.12119-0.48043-0.59199-0.69829-0.59199-0.091 0-0.20647-0.0367-0.25663-0.0816-0.17193-0.15377-1.5046-0.65436-3.2592-1.2243-0.7392-0.2401-1.4504-0.47979-1.5805-0.53265-0.13009-0.0529-0.60529-0.22041-1.056-0.37232-0.77546-0.26135-1.4822-0.52091-2.0195-0.74163-0.132-0.0542-0.4344-0.17546-0.672-0.26941-0.52062-0.20584-1.9339-0.85056-2.4-1.0949-1.0828-0.56751-1.5046-0.80549-1.6396-0.92505-0.0834-0.0738-0.17906-0.13425-0.21267-0.13425-0.20876 0-2.0501-1.329-3.1398-2.2661-0.80461-0.69199-2.0315-1.9541-2.377-2.4452-0.159-0.22601 0.0152-0.3419 0.29818-0.19843 0.11376 0.0577 0.59565 0.23424 1.0708 0.39235 0.4752 0.15812 1.3608 0.46467 1.968 0.68124 0.6072 0.21656 1.2336 0.43213 1.392 0.47905 0.1584 0.0469 0.8496 0.27858 1.536 0.5148 1.3129 0.45182 2.3655 0.69669 2.5376 0.59033 0.17513-0.10824 0.11353-0.29568-0.16479-0.50145-0.36236-0.2679-1.8038-1.5242-2.8278-2.4647-1.314-1.2068-3.0159-3.1854-3.3561-3.9019-0.0627-0.132-0.16308-0.3048-0.22313-0.384-0.32834-0.4331-0.59899-1.8082-0.37179-1.889 0.0583-0.0207 0.29586 0.14901 0.528 0.37715 1.3431 1.32 5.1197 3.5056 8.3421 4.8278 0.3432 0.14082 0.6672 0.28729 0.72 0.32549s0.312 0.14716 0.576 0.24214c0.264 0.095 0.6096 0.22825 0.768 0.29615 0.73432 0.31478 1.485 0.61993 1.968 0.80003 0.2904 0.10827 0.92731 0.34971 1.4154 0.53652 0.48805 0.18682 0.94165 0.34104 1.008 0.34272 0.0664 2e-3 0.2045 0.0665 0.30699 0.144 0.23576 0.17832 0.72566 0.18666 0.72566 0.0124 0-0.0707-0.0972-0.18081-0.216-0.24464-0.1188-0.0638-0.3888-0.2211-0.6-0.34949s-0.4488-0.26379-0.528-0.30088c-0.0792-0.0371-0.252-0.13853-0.384-0.22544-0.132-0.0869-0.4776-0.3103-0.768-0.49646-3.4598-2.2178-5.4352-3.7021-7.5238-5.6534-1.2045-1.1253-2.8683-3.1208-3.6602-4.3898-0.0528-0.0846-0.23084-0.35282-0.39564-0.59602-0.38015-0.561-0.48331-0.86334-0.29458-0.86334 0.0763 0 0.19163 0.0638 0.25631 0.1417 0.0647 0.0779 0.49116 0.3854 0.94775 0.68326 0.45658 0.29787 0.93816 0.6143 1.0702 0.70319 0.132 0.0889 0.456 0.27399 0.72 0.41133s0.804 0.42721 1.2 0.64414c0.70112 0.38408 3.81 1.9284 3.8822 1.9284 0.0199 0 0.46128 0.19723 0.98097 0.4383 0.51967 0.24106 1.1177 0.51746 1.3289 0.61422 0.2112 0.0968 0.72265 0.33152 1.1366 0.5217 0.41391 0.19018 0.7754 0.34578 0.80331 0.34578 0.0404 0 2.8104 1.1732 3.6281 1.5366 0.1056 0.0469 0.6672 0.28553 1.248 0.53021 0.5808 0.24467 1.1921 0.50613 1.3585 0.58102 0.16639 0.0749 0.34335 0.13616 0.39326 0.13616 0.0499 0 0.23063 0.0698 0.4016 0.15508 0.21656 0.10803 0.34137 0.12459 0.41139 0.0546 0.07-0.07 2e-3 -0.14646-0.22412-0.25195-0.17855-0.0833-0.64863-0.32689-1.0446-0.54135s-1.2122-0.6486-1.8139-0.96477c-6.2714-3.2957-10.881-6.8864-12.923-10.068-0.53289-0.82994-1.295-2.3454-1.295-2.5752 0-0.0584-0.0614-0.2481-0.13636-0.42149-0.25738-0.59502-0.74139-2.8394-0.62752-2.9098 0.0392-0.0242 0.71309 0.5951 1.4976 1.3763 1.7121 1.7048 3.8523 3.4224 5.7943 4.6499 0.3432 0.21694 0.84 0.53256 1.104 0.70139 0.68167 0.43594 3.1404 1.875 3.9298 2.3001 0.36621 0.1972 1.3123 0.72042 2.1025 1.1627s1.4547 0.80414 1.4768 0.80414c0.0221 0 0.64584 0.3564 1.3861 0.792 0.74026 0.4356 1.6092 0.93166 1.9309 1.1024 0.32173 0.17069 0.62891 0.35429 0.68263 0.408 0.12645 0.12646 0.34725 0.126 0.34725-7.7e-4 0-0.0541-0.108-0.13944-0.24-0.18962-0.132-0.0502-0.24177-0.12472-0.24394-0.16563-2e-3 -0.0409-0.25056-0.25996-0.552-0.48678-1.9569-1.4725-2.476-1.8768-3.2878-2.5605-4.4481-3.746-7.7669-7.3392-10.129-10.967-0.40554-0.62284-0.81882-1.2495-0.91841-1.3925-0.0996-0.14306-0.18106-0.28156-0.18106-0.30778 0-0.0262-0.13435-0.2755-0.29854-0.55398-0.55866-0.94748-1.7437-3.374-2.3354-4.7821-0.30942-0.73635-0.44547-1.0473-0.71683-1.6383-0.20693-0.45068-0.26799-0.8984-0.1148-0.84169 0.0475 0.0176 0.46309 0.464 0.92345 0.992 5.5562 6.3725 11.912 11.994 18.449 16.318 3.16 2.0902 4.061 2.6331 4.061 2.4473 0-0.0513-0.0432-0.0933-0.096-0.0933s-0.096-0.0386-0.096-0.0858-0.91954-1.0084-2.0434-2.136c-2.2253-2.2326-3.2594-3.313-4.4434-4.6422-4.9609-5.569-8.5151-10.625-11.033-15.696-0.74974-1.5097-1.1998-2.4912-1.1998-2.6167 0-0.0685-0.0581-0.20982-0.12908-0.31397-0.071-0.10415-0.15481-0.27576-0.18627-0.38136-0.0315-0.1056-0.17023-0.4944-0.30837-0.864-0.75141-2.0104-1.1909-3.6186-1.6397-6-0.19622-1.0413-0.30941-4.5492-0.14997-4.6478 0.12689-0.0784 0.30135 0.31292 0.30135 0.67597 0 0.13184 0.0593 0.44223 0.13179 0.68975 0.0725 0.24752 0.2297 0.88204 0.34938 1.41s0.27637 1.1451 0.34821 1.3714c0.0718 0.22625 0.13062 0.47648 0.13062 0.55607 0 0.18237 0.80184 2.5908 0.9896 2.9724 0.0769 0.15629 0.3933 0.79987 0.70311 1.4302 0.30981 0.63031 0.87649 1.6213 1.2593 2.2023s0.696 1.0699 0.696 1.0866c0 0.0579 1.6802 2.1938 2.4395 3.1011 0.41976 0.5016 1.4596 1.668 2.3107 2.592 0.85113 0.924 2.2581 2.4811 3.1267 3.4602 4.8094 5.4218 7.8936 8.7471 10.3 11.105 1.7973 1.7611 2.5124 2.3712 2.6673 2.2754 0.15067-0.0931 0.0907-0.20961-0.37498-0.72885-1.3268-1.4792-4.2096-5.5273-5.918-8.31-0.15456-0.25175-0.41891-0.67372-0.58744-0.93772s-0.63012-1.0416-1.0258-1.728c-0.69049-1.1979-0.90081-1.5711-1.5421-2.736-0.38789-0.70458-2.6595-5.2449-2.8888-5.774-0.0997-0.22991-0.34806-0.77017-0.552-1.2006-0.20395-0.43041-0.3708-0.83414-0.3708-0.89719 0-0.0631-0.063-0.2293-0.14005-0.36945-0.18338-0.33365-0.53105-1.135-0.53521-1.2335-2e-3 -0.0425-0.0867-0.25007-0.18874-0.46127-0.10202-0.2112-0.18695-0.44227-0.18875-0.51349-2e-3 -0.0712-0.0661-0.26562-0.14296-0.432-0.18694-0.40477-0.42606-1.0679-0.58052-1.6099-0.0695-0.24385-0.1684-0.52465-0.21978-0.624-0.0514-0.0993-0.14486-0.37503-0.20773-0.61263-0.3226-1.219-0.40495-1.5039-0.48564-1.68-0.0484-0.1056-0.12775-0.408-0.17638-0.672-0.0486-0.264-0.15321-0.7392-0.23242-1.056-0.45162-1.8064-0.6959-4.2622-0.60635-6.096 0.0706-1.4464 0.13409-1.92 0.25726-1.92 0.12471 0 0.43566 0.66673 0.51488 1.104 0.0383 0.2112 0.10143 0.4272 0.14037 0.48 0.0389 0.0528 0.1913 0.4848 0.33857 0.96 0.14729 0.4752 0.32385 1.0152 0.39237 1.2 0.16946 0.45697 0.41317 1.2052 0.56428 1.7324 0.0688 0.24003 0.17452 0.52879 0.23494 0.64169 0.0604 0.11289 0.11013 0.2837 0.11045 0.37957 0 0.0959 0.0667 0.30108 0.1475 0.45602s0.18535 0.43574 0.23235 0.624c0.0798 0.31972 0.66383 2.0035 1.1509 3.3183 0.11737 0.3168 0.23483 0.6624 0.26102 0.768 0.0262 0.1056 0.0864 0.2784 0.13378 0.384 0.0474 0.1056 0.21818 0.5592 0.37954 1.008s0.35659 0.95213 0.43383 1.1185c0.0772 0.16638 0.14045 0.34882 0.14045 0.40543 0 0.0566 0.0836 0.28768 0.18581 0.51349s0.28421 0.66977 0.40446 0.98657c0.12026 0.3168 0.27425 0.66121 0.34219 0.76536 0.0679 0.10415 0.12354 0.24199 0.12354 0.30632 0 0.0643 0.17608 0.49752 0.39129 0.96264 0.79568 1.7196 1.0649 2.2903 1.1689 2.4777 0.0586 0.1056 0.24083 0.4512 0.40496 0.768 0.31208 0.60238 0.33658 0.6432 1.0371 1.728 0.67882 1.0512 1.1008 1.3745 2.2978 1.7604 0.75773 0.24428 0.87896 0.25277 1.0289 0.0721 0.0878-0.10583 0.052-0.32168-0.1634-0.984-0.15175-0.46664-0.37566-1.2804-0.49757-1.8084-0.12192-0.528-0.27704-1.1976-0.34473-1.488-0.0677-0.2904-0.14738-0.7008-0.17711-0.912-0.0297-0.2112-0.13934-0.9456-0.24358-1.632-0.47372-3.1195-0.53487-4.2269-0.53004-9.6 3e-3 -3.3245 0.0446-5.429 0.12-6.072 0.0635-0.5412 0.15968-1.4268 0.21378-1.968s0.15876-1.308 0.23259-1.704c0.0738-0.396 0.16091-0.9144 0.19351-1.152 0.10014-0.72999 0.67023-2.6835 0.94928-3.2529 0.37315-0.76139 1.5197-1.7426 2.7088-2.3183 0.23402-0.11329 0.42549-0.23993 0.42549-0.28142 0-0.0415 0.12913-0.10126 0.28695-0.13282 0.29529-0.0591 0.57705 1e-3 0.57705 0.12302 0 0.038-0.30288 0.56258-0.67306 1.1657s-0.6973 1.1614-0.72693 1.2406c-0.0296 0.0792-0.0943 0.2088-0.14364 0.288-0.0494 0.0792-0.13757 0.252-0.196 0.384-0.0584 0.132-0.18771 0.41753-0.2873 0.63451-0.0996 0.21698-0.18107 0.46284-0.18107 0.54634s-0.042 0.17779-0.0934 0.20953c-0.0514 0.0317-0.14031 0.2395-0.19764 0.46167-0.0573 0.22217-0.1665 0.54008-0.2426 0.70646-0.0761 0.16637-0.13837 0.39158-0.13837 0.50044 0 0.10887-0.0864 0.41714-0.192 0.68505s-0.192 0.61967-0.192 0.78169c0 0.16203-0.062 0.53843-0.13782 0.83645-0.24725 0.97206-0.46559 4.1398-0.39136 5.6779 0.10319 2.1384 0.33278 4.349 0.62812 6.048 0.25754 1.4815 0.61583 3.1887 0.81772 3.8964 0.0766 0.26865 0.13934 0.61213 0.13934 0.7633 0 0.48727 0.97128 1.3009 3.36 2.8146 1.1917 0.75519 2.1686 1.4427 2.6422 1.8596 0.48602 0.42783 0.63817 0.70105 0.97671 1.754 0.13581 0.4224 0.3275 0.97041 0.426 1.2178 0.0985 0.24739 0.17908 0.52023 0.17908 0.60632 0 0.0861 0.0533 0.25087 0.11845 0.3662 0.0652 0.11533 0.16988 0.40409 0.23273 0.64169 0.15254 0.57667 0.39984 1.3201 0.56794 1.7072 0.0753 0.1734 0.13688 0.41218 0.13688 0.53064s0.058 0.3006 0.1289 0.40475 0.17607 0.36216 0.23372 0.57336c0.0577 0.2112 0.21857 0.6864 0.35758 1.056 0.13902 0.3696 0.29264 0.8016 0.34137 0.96 0.13936 0.45287 1.0701 2.3704 1.2748 2.6262 0.0573 0.0716 0.14907 0.2066 0.20393 0.29993 0.11193 0.1904 0.65285 0.98093 1.118 1.6338 0.51022 0.71622 0.6629 1.293 0.65368 2.4696-4e-3 0.56892-0.0412 1.2936-0.0817 1.6104-0.10453 0.81742 0.0589 1.909 0.38087 2.544 0.40762 0.80388 0.59318 0.96 1.141 0.96 0.66507 0 0.73583-0.12837 0.48353-0.87731-0.85909-2.5502-1.5203-6.1345-1.2514-6.7838 0.11853-0.28613 0.74422-1.2628 1.4575-2.2749 0.18604-0.264 0.37716-0.5664 0.4247-0.672 0.0476-0.1056 0.0885-1.164 0.091-2.352 3e-3 -1.6091 0.0379-2.2334 0.13528-2.448 0.44733-0.98568 0.63516-1.3148 0.8009-1.4036 0.10278-0.055 0.21117-0.0757 0.24087-0.046s-0.0164 0.5192-0.10252 1.0878c-0.64274 4.2454-0.66366 9.9988-0.0509 13.994 0.0567 0.3696 0.15879 1.1331 0.22687 1.6967 0.0681 0.56359 0.1488 1.0652 0.17939 1.1147 0.0306 0.0495 0.12006 0.47396 0.19886 0.94328 0.21788 1.2978 0.69112 3.3718 1.1038 4.8373 0.11151 0.396 0.26355 0.936 0.33789 1.2 0.23611 0.83852 0.76981 2.4102 1.2152 3.5787 0.10128 0.26572 0.36366 0.38378 0.47011 0.21154 0.0427-0.0692 0.10632-0.47506 0.14128-0.90199 0.035-0.42693 0.12234-1.0354 0.19418-1.3522 0.0718-0.3168 0.15801-0.792 0.19149-1.056 0.18717-1.4761 0.92114-4.3548 1.3499-5.2945 0.0759-0.16638 0.13804-0.35412 0.13804-0.41719 0-0.0631 0.0596-0.22935 0.13257-0.36949 0.0729-0.14015 0.23338-0.49241 0.35658-0.78281 0.66611-1.5701 1.464-2.3232 2.603-2.4571 0.39362-0.0463 0.54219-0.027 0.6328 0.0822 0.0979 0.11802 0.0269 0.26112-0.41129 0.82824-0.29133 0.37706-0.5297 0.70435-0.5297 0.7273 0 0.023-0.12428 0.22751-0.27618 0.45455-0.22791 0.34065-0.72209 1.2277-1.059 1.9008-0.0396 0.0792-0.16584 0.32535-0.28045 0.54702-0.11461 0.22166-0.20838 0.45273-0.20838 0.51349 0 0.0608-0.0629 0.2466-0.13971 0.41298-0.19589 0.42415-0.43299 1.0978-0.54575 1.5505-0.0526 0.2112-0.13484 0.45733-0.18276 0.54696-0.0479 0.0896-0.1522 0.45683-0.23172 0.816-0.0795 0.35917-0.18541 0.82584-0.23528 1.037-0.30292 1.2828-0.40272 1.8275-0.4877 2.6614-0.0523 0.51339-0.14442 1.1398-0.20467 1.392-0.0693 0.2902-0.1122 1.5864-0.11677 3.5306-6e-3 2.4959 0.0234 3.243 0.15624 3.984 0.0899 0.5016 0.20289 1.1496 0.25108 1.44 0.20262 1.2207 0.31173 1.8108 0.44373 2.4 0.0769 0.3432 0.1839 0.94223 0.2378 1.3312 0.0539 0.38895 0.12243 0.74672 0.15229 0.79504 0.0299 0.0483 0.11617 0.46451 0.19178 0.92484 0.0756 0.46033 0.22551 1.269 0.33312 1.797s0.25161 1.2408 0.32001 1.584c0.18558 0.93118 0.45013 2.0144 0.59865 2.4512 0.0724 0.21297 0.13166 0.46273 0.13166 0.55504 0 0.0923 0.0857 0.43645 0.19049 0.76478 0.10477 0.32834 0.28144 0.89938 0.39262 1.269s0.24512 0.8016 0.29765 0.96c0.17036 0.51369 0.47889 1.712 0.61224 2.378 0.0716 0.35752 0.15475 0.68981 0.18481 0.73844 0.0301 0.0486 0.0996 0.33934 0.1545 0.64599 0.24465 1.3661 0.82092 3.1166 1.4951 4.5416 0.53773 1.1366 0.58281 1.2487 0.84922 2.112 0.1385 0.4488 0.29438 0.9456 0.34638 1.104 0.1642 0.50008 0.28174 2.638 0.19529 3.552-0.0816 0.86276-0.0323 1.104 0.2257 1.104 0.0663 0 0.17038-0.0601 0.23136-0.13359 0.15421-0.18581 2.2951-1.2098 2.5319-1.211 0.0642 0 0.23579-0.0627 0.38129-0.13858 0.26865-0.14014 1.0731-0.37628 1.9435-0.57046 0.264-0.0589 0.52897-0.13877 0.58883-0.17749 0.0599-0.0387 0.42706-0.11498 0.816-0.16946 0.38894-0.0545 0.83677-0.13957 0.99517-0.18911 0.28854-0.0902 1.1803-0.20967 2.976-0.39868 1.2059-0.12692 5.9352-0.0528 6.72 0.10533 1.4286 0.28783 2.4226 0.51962 2.688 0.62678 0.1584 0.064 0.58985 0.23445 0.95879 0.37886 0.36893 0.14441 0.8571 0.3883 1.0848 0.54198 0.22771 0.15369 0.43903 0.27943 0.46957 0.27943 0.0306 0 0.22291 0.1512 0.42747 0.336 0.34198 0.30895 0.42017 0.33588 0.97164 0.3346 0.74901-2e-3 3.4098 0.34811 4.0642 0.53437 0.26863 0.0765 0.5956 0.13903 0.72657 0.13903 0.43815 0 2.9212 0.7507 3.969 1.1999 0.43492 0.18646 1.2067 0.57645 1.584 0.8004 0.1848 0.10969 0.552 0.31251 0.816 0.45072s0.5664 0.32803 0.672 0.42181c0.1056 0.0938 0.27482 0.19997 0.37605 0.23597 0.1372 0.0488 0.15635 0.0931 0.0752 0.17431-0.0812 0.0812-0.20132 0.0698-0.47205-0.0448-1.2806-0.5418-3.4008-0.96531-5.4512-1.0888-1.4602-0.088-4.2006 0.19201-4.5947 0.46945-0.37761 0.2658-0.23388 0.32097 1.0427 0.40025 0.5808 0.0361 1.4664 0.12505 1.968 0.19775s1.2576 0.16037 1.68 0.1948c1.8036 0.14707 4.6806 0.6685 5.2111 0.94446 0.36198 0.18833 0.32767 0.34777-0.0749 0.34777-0.15201 0-0.54996 0.0634-0.88434 0.141-0.44362 0.10288-1.3729 0.14839-3.438 0.16838l-2.83 0.0274-0.768 0.46579c-2.7542 1.6704-5.6239 2.9745-7.7486 3.5211-0.31875 0.082-1.9619 0.95348-2.7154 1.4402-0.1584 0.10231-0.3528 0.21597-0.432 0.2526-0.0792 0.0366-0.252 0.14026-0.384 0.23034-0.132 0.0901-0.996 0.66655-1.92 1.2811-0.924 0.61452-1.9921 1.3429-2.3735 1.6187s-1.051 0.76014-1.488 1.0764c-1.5031 1.0877-6.5054 4.9887-7.9465 6.197-0.56401 0.47288-4.8352 4.0429-5.5084 4.6041-0.22168 0.1848-1.0062 0.85551-1.7433 1.4904-1.8457 1.5898-2.4742 2.048-3.3083 2.4117-0.0792 0.0345-0.4464 0.2018-0.816 0.3717-0.3696 0.16991-0.9096 0.40372-1.2 0.51959-0.2904 0.11588-0.65031 0.27275-0.79978 0.34862-0.14948 0.0759-0.31755 0.13793-0.37349 0.13793-0.0559 0-0.27923 0.0831-0.49622 0.18473-0.39731 0.18602-1.7681 0.7267-2.7465 1.0833-0.2904 0.10584-0.6576 0.24877-0.816 0.31764-0.1584 0.0689-0.3744 0.14782-0.48 0.17547-0.1056 0.0277-0.4944 0.16627-0.864 0.30805-0.3696 0.14177-0.8016 0.29239-0.96 0.33471-0.1584 0.0423-0.5904 0.19101-0.96 0.33045s-0.8016 0.29115-0.96 0.33712c-0.42591 0.12362-1.2039 0.39342-1.5633 0.5421-0.17339 0.0717-0.38939 0.1307-0.48 0.13103-0.0906 0-0.28063 0.061-0.42227 0.13494-0.14165 0.0739-0.40068 0.16581-0.57562 0.20423-0.17495 0.0384-0.44786 0.12319-0.60647 0.18838-0.15861 0.0652-0.61238 0.21521-1.0084 0.33339-0.396 0.1182-0.8712 0.27016-1.056 0.3377-0.1848 0.0675-0.6816 0.2189-1.104 0.33636-0.4224 0.11745-0.9408 0.2703-1.152 0.33966-0.2112 0.0694-0.5352 0.15598-0.72 0.19251-0.1848 0.0365-0.3792 0.0996-0.432 0.14023-0.0528 0.0406-0.2472 0.10501-0.432 0.1431-0.1848 0.0381-0.7032 0.1784-1.152 0.31178-0.4488 0.13339-1.0536 0.30036-1.344 0.37106-0.88197 0.2147-1.6555 0.41952-2.147 0.56851-0.25687 0.0779-0.55927 0.14134-0.672 0.14108-0.11275 0-0.39938 0.0624-0.63698 0.13932-0.2376 0.0769-0.864 0.23091-1.392 0.34227s-1.2408 0.26303-1.584 0.33704c-0.3432 0.074-0.8184 0.15947-1.056 0.1899-0.2376 0.0304-0.7992 0.11784-1.248 0.19425-0.4488 0.0764-1.5072 0.22822-2.352 0.33735-4.6195 0.59671-6.3162 1.1058-8.304 2.4918-2.1846 1.5232-2.6763 1.8457-3.072 2.015-0.132 0.0565-0.3696 0.16416-0.528 0.23932-0.47161 0.22376-2.7586 0.81825-3.1479 0.81825-0.17018 0-2.4101 2.1799-9.1985 8.952-8.3147 8.2947-9.6856 9.6919-9.6856 9.871 0 0.16728-0.64251 0.22143-1.056 0.089zm-105.06-35.62c-1.4063-0.23603-2.9176-0.92363-3.9638-1.8034-0.62464-0.52528-1.5166-1.669-1.4522-1.8622 0.0173-0.0518 0.56859-0.39447 1.2252-0.7615l1.1938-0.66732 0.18886 0.2695c0.90491 1.2912 2.4238 1.9495 4.4983 1.9495 2.1436 0 3.4115-0.67153 3.8774-2.0535 0.19805-0.58749 0.22165-1.6938 0.0469-2.1964-0.34894-1.0032-1.7876-1.8656-4.3617-2.6147-2.6007-0.75686-3.7618-1.3509-4.8446-2.4785-2.5545-2.6602-1.6545-7.3752 1.7162-8.9916 0.97788-0.46894 1.9767-0.67327 3.2912-0.67327 1.5581 0 2.753 0.28029 4.0406 0.94789 1.0248 0.53132 2.5546 2.073 2.2927 2.3105-0.0463 0.042-0.55106 0.38708-1.1217 0.76682l-1.0375 0.69044-0.60678-0.56761c-0.70543-0.65989-1.1661-0.90402-2.2092-1.1708-1.2665-0.32391-2.4459-0.20213-3.413 0.35244-1.0099 0.57917-1.3564 1.1412-1.4203 2.3038-0.0368 0.66999-0.0119 0.84999 0.16902 1.2238 0.4494 0.92834 1.6208 1.5926 4.0738 2.3101 2.64 0.77219 3.9779 1.4624 5.0443 2.6024 0.66054 0.70611 1.1808 1.7082 1.355 2.6099 0.17929 0.92817 0.0711 2.605-0.21873 3.3917-0.77992 2.1165-2.5355 3.5723-4.8957 4.0598-0.78701 0.16256-2.6438 0.19047-3.468 0.0521zm265.77-0.0509c-0.98179-0.26406-1.8243-0.79065-2.7479-1.7175-1.2397-1.2441-2.0858-2.8374-2.56-4.8213-0.28743-1.2022-0.37049-6.1808-0.13044-7.8177 0.65786-4.4859 3.1122-7.2856 6.5302-7.4491 3.1989-0.15303 5.5223 1.7105 6.7679 5.4285 0.53579 1.5992 0.61976 2.3537 0.6215 5.5846 2e-3 3.2599-0.0788 3.9679-0.62945 5.529-0.59475 1.6862-1.2283 2.712-2.307 3.7351-0.8068 0.76522-1.775 1.3175-2.6865 1.5323-0.76771 0.18096-2.1781 0.17906-2.8582-4e-3zm2.8016-3.1473c1.0585-0.51788 2.0415-1.8911 2.4634-3.4413 0.27787-1.0211 0.38564-2.1989 0.38465-4.204-1e-3 -2.8703-0.23904-4.4055-0.88808-5.7375-0.8159-1.6745-2.3833-2.5534-3.9751-2.2289-1.5777 0.32159-2.5939 1.4845-3.1799 3.639-0.24601 0.90453-0.25015 0.97259-0.25428 4.1835-4e-3 3.1221 5e-3 3.2995 0.21842 4.08 0.433 1.5871 1.3148 2.9596 2.2877 3.5609 0.87159 0.53868 2.0264 0.5969 2.9432 0.14838zm36.235 3.149c-1.8425-0.44652-3.6981-2.0206-4.6331-3.9302-0.58516-1.1951-0.63779-1.088 0.83458-1.699 1.2521-0.51962 1.2803-0.52636 1.3677-0.32778 0.4165 0.94652 0.65958 1.3325 1.1588 1.84 1.6973 1.7256 3.9724 1.6788 5.6123-0.11548 0.51167-0.55983 0.987-1.4493 1.1481-2.1484 0.2259-0.9804 0.0654-2.2994-0.38794-3.188-0.2613-0.5122-1.1472-1.4428-1.6591-1.7428-0.83869-0.4915-1.9076-0.64392-2.7934-0.3983-0.15407 0.0427-0.2963-0.0913-0.72-0.67834-0.2904-0.40237-0.51635-0.77247-0.5021-0.82245 0.0142-0.05 0.76295-1.2603 1.6638-2.6897 0.90085-1.4293 1.6606-2.658 1.6884-2.7303 0.0421-0.10959-0.44692-0.1315-2.9358-0.1315h-2.9863v-2.784h9.888v1.9763l-1.4186 2.2519c-0.78021 1.2385-1.5338 2.4499-1.6747 2.6919l-0.25614 0.44003 0.5947 0.10998c2.0082 0.37135 3.6565 2.1438 4.1681 4.4819 0.2308 1.0548 0.23161 3.2176 2e-3 4.08-0.22327 0.83686-1.0166 2.4164-1.5537 3.0933-0.88497 1.1154-2.3687 2.1017-3.6494 2.4259-0.70677 0.17889-2.2076 0.17639-2.9558-5e-3zm-358.92-10.848v-10.71l4.44 0.0356c4.2551 0.0341 4.4693 0.0444 5.1436 0.24849 1.7791 0.53839 3.4759 1.7758 4.4977 3.28 1.8238 2.6848 2.4441 7.0658 1.5175 10.718-0.78514 3.0952-2.6622 5.584-4.9866 6.6119-1.0872 0.4808-1.625 0.52576-6.2881 0.52576h-4.324zm8.592 7.5879c2.1715-0.59729 3.6152-2.361 4.2021-5.1334 0.25412-1.2004 0.27336-3.5145 0.0392-4.7113-0.57688-2.9479-1.9336-4.7025-4.1933-5.4233-0.43171-0.13771-0.99629-0.17607-3.096-0.21037l-2.568-0.0419v15.789l2.52-0.0553c1.907-0.0419 2.6601-0.0939 3.096-0.21379zm17.904-7.5818v-10.704h12.192v2.784h-9.312v5.856h8.352v2.976h-8.3544l0.0504 6.864 9.264 0.0498v2.8782h-12.192zm46.848-6e-3v-10.71l4.44 0.0356c4.2551 0.0341 4.4693 0.0444 5.1436 0.24849 1.7791 0.53839 3.4759 1.7758 4.4977 3.28 1.8238 2.6848 2.4441 7.0658 1.5176 10.718-0.78515 3.0952-2.6622 5.584-4.9866 6.6119-1.0872 0.4808-1.625 0.52576-6.2881 0.52576h-4.3241zm8.592 7.5879c2.1715-0.59729 3.6152-2.361 4.2021-5.1334 0.25412-1.2004 0.27335-3.5145 0.0392-4.7113-0.57689-2.9479-1.9336-4.7025-4.1933-5.4233-0.43171-0.13771-0.99628-0.17607-3.096-0.21037l-2.568-0.0419v15.789l2.52-0.0553c1.907-0.0419 2.6601-0.0939 3.096-0.21379zm17.904-7.5818v-10.704h12.192v2.784h-9.312v5.856h8.352v2.976h-8.3544l0.0504 6.864 9.264 0.0498v2.8782h-12.192zm191.71 9.6478v-1.0562l2.7182-3.2878c1.495-1.8083 3.3418-4.0644 4.104-5.0137 2.7805-3.4632 2.8189-3.5286 2.819-4.802 0-1.2757-0.2051-1.8592-0.89721-2.5513-0.47281-0.47281-0.65632-0.58513-1.2512-0.76582-1.2391-0.37637-2.2878-0.11972-3.1889 0.78045-0.54515 0.54457-0.93573 1.2866-1.0108 1.9201l-0.056 0.47251h-2.9109l0.0738-0.76325c0.22438-2.321 1.9406-4.4979 4.1771-5.2984 0.78136-0.27968 2.3482-0.3466 3.2359-0.13819 1.6644 0.39076 3.2172 1.6691 4.0326 3.3199 0.89948 1.8211 0.94615 4.1049 0.11722 5.7376-0.12687 0.24992-1.8552 2.4848-3.8407 4.9664s-3.6101 4.5444-3.6101 4.584c-4e-5 0.0396 1.9007 0.072 4.2239 0.072h4.224v2.88h-12.96zm49.032-8.2318-0.0245-9.288-2.64-0.0534v-2.7786h5.568v21.408h-2.879z" stroke-width=".096"/>
</svg>
